<?xml version="1.0" standalone="no"?>
<svg version="1.0" xmlns="http://www.w3.org/2000/svg"
 width="852.000000pt" height="568.000000pt" viewBox="0 0 852.000000 568.000000"
 preserveAspectRatio="xMidYMid meet">
<metadata>
Created by potrace 1.13, written by Peter Selinger 2001-2015
</metadata>
<g transform="translate(0.000000,568.000000) scale(0.100000,-0.100000)"
fill="#2b6ebc" stroke="none">
<path d="M965 5669 c-157 -20 -344 -90 -477 -180 -87 -58 -228 -198 -288 -285
-100 -145 -167 -322 -189 -499 -15 -121 -16 -3605 -1 -3722 57 -454 374 -818
818 -941 l97 -27 3330 0 3330 0 100 27 c341 94 630 354 751 676 74 198 68 28
72 2067 3 1908 3 1934 -39 2088 -27 97 -116 277 -177 358 -189 248 -460 404
-762 439 -108 12 -6466 11 -6565 -1z m7025 -1685 c141 -77 175 -268 68 -389
-52 -59 -109 -85 -186 -85 -224 0 -335 266 -179 428 81 85 193 103 297 46z
m-6520 -445 l0 -392 35 71 c62 122 168 198 324 229 181 37 363 -33 432 -168
43 -85 49 -150 49 -561 l0 -388 75 0 75 0 0 -60 0 -60 -245 0 -245 0 0 60 0
60 90 0 91 0 -3 423 c-3 406 -4 424 -24 462 -13 25 -39 51 -69 70 -47 29 -52
30 -169 30 -110 0 -126 -2 -178 -27 -71 -33 -146 -102 -181 -166 -52 -95 -57
-139 -57 -479 l0 -313 95 0 95 0 0 -60 0 -60 -255 0 -255 0 0 60 0 60 80 0 80
0 0 735 0 735 -80 0 -80 0 0 65 0 65 160 0 160 0 0 -391z m2770 49 l0 -343 22
45 c30 60 122 151 183 179 217 101 493 -4 604 -231 109 -222 104 -564 -10
-790 -118 -233 -418 -336 -644 -220 -72 36 -147 129 -180 221 l-13 36 -6 -40
c-14 -79 -27 -131 -47 -183 l-21 -52 -239 0 -239 0 0 170 0 170 50 0 50 0 0
505 0 505 -50 0 -50 0 0 185 0 185 295 0 295 0 0 -342z m-3610 -3 l0 -155 203
-2 202 -3 0 -60 0 -60 -203 -3 -204 -2 4 -418 3 -417 25 -49 c14 -28 36 -58
50 -68 56 -40 219 -39 299 2 55 28 61 26 61 -21 0 -83 -98 -139 -245 -139
-142 0 -238 45 -291 136 -50 85 -54 125 -54 567 l0 407 -85 0 -85 0 0 45 c0
41 2 45 28 50 75 16 103 28 126 55 31 37 43 77 58 198 l12 92 48 0 48 0 0
-155z m5692 -100 c93 -32 179 -141 203 -254 l7 -34 32 59 c97 182 280 278 469
246 165 -29 263 -132 302 -319 11 -50 15 -143 15 -350 l0 -283 50 0 50 0 0
-170 0 -170 -355 0 -355 0 0 170 0 170 55 0 55 0 0 245 c0 260 -4 290 -48 329
-34 30 -101 32 -141 4 -73 -49 -91 -128 -91 -395 l0 -183 55 0 55 0 0 -170 0
-170 -355 0 -355 0 0 170 0 170 55 0 55 0 0 220 c0 238 -9 305 -45 344 -45 49
-128 46 -177 -6 -48 -52 -60 -111 -65 -345 l-6 -213 62 0 61 0 0 -170 0 -170
-355 0 -355 0 0 170 0 170 50 0 50 0 0 260 0 260 -50 0 -50 0 2 203 3 202 250
0 250 0 24 -50 c13 -27 31 -86 40 -130 l16 -80 28 57 c55 112 155 195 272 225
61 16 174 10 237 -12z m1793 -665 l0 -655 -23 -64 c-48 -133 -129 -219 -249
-264 -50 -19 -78 -22 -208 -22 -140 0 -153 2 -200 25 l-50 25 -3 133 -3 132
87 0 c85 0 87 1 120 34 l34 34 0 436 0 436 -50 0 -50 0 0 205 0 205 298 -2
297 -3 0 -655z m-4903 610 c165 -51 263 -176 296 -374 10 -65 13 -118 7 -179
l-7 -87 -435 0 -435 0 7 -62 c25 -240 120 -363 312 -403 170 -36 384 1 504 86
l30 21 -3 -63 -3 -64 -55 -33 c-91 -54 -169 -74 -312 -80 -148 -5 -241 11
-340 60 -84 42 -184 143 -225 228 -55 114 -67 178 -67 345 0 135 3 158 27 230
73 222 222 357 435 395 67 12 190 3 264 -20z"/>
<path d="M4354 3141 c-81 -50 -108 -125 -108 -296 0 -224 61 -335 184 -335 51
0 88 19 127 64 53 60 68 122 68 286 0 132 -2 149 -24 193 -34 70 -79 100 -155
105 -48 2 -68 -1 -92 -17z"/>
<path d="M2945 3327 c-73 -20 -124 -49 -176 -104 -71 -73 -103 -148 -124 -290
l-7 -43 366 0 366 0 0 53 c0 77 -18 164 -46 224 -31 64 -107 135 -165 152 -63
19 -156 22 -214 8z"/>
</g>
</svg>
